/vscmnt/brussel_pixiu_data/_data_brussel/112/vsc11236/PredSimResults/SUBJ11mtu3D/worker7.mot
version=1
nRows=8
nColumns=50
inDegrees=yes
endheader
                time	         pelvis_tilt	         pelvis_list	     pelvis_rotation	           pelvis_tx	           pelvis_ty	           pelvis_tz	       hip_flexion_r	     hip_adduction_r	      hip_rotation_r	        knee_angle_r	       ankle_angle_r	         mtp_angle_r	       hip_flexion_l	     hip_adduction_l	      hip_rotation_l	        knee_angle_l	       ankle_angle_l	         mtp_angle_l	    lumbar_extension	      lumbar_bending	     lumbar_rotation	 ercspn_r/activation	 intobl_r/activation	 extobl_r/activation	    abd_r/activation	    add_r/activation	hamstrings_r/activation	bifemsh_r/activation	glut_max_r/activation	iliopsoas_r/activation	rect_fem_r/activation	  vasti_r/activation	gastroc_r/activation	 soleus_r/activation	tib_ant_r/activation	 ercspn_l/activation	 intobl_l/activation	 extobl_l/activation	    abd_l/activation	    add_l/activation	hamstrings_l/activation	bifemsh_l/activation	glut_max_l/activation	iliopsoas_l/activation	rect_fem_l/activation	  vasti_l/activation	gastroc_l/activation	 soleus_l/activation	tib_ant_l/activation	
          1.25054185	         -3.55897804	         -2.59552273	          5.01086354	          1.37559604	          0.94510694	         -0.00879357	         31.27473517	          0.51244481	         -2.79744422	        -11.17031092	          4.94753359	          0.23537291	        -13.35197051	         -3.33802856	          0.46412499	         -9.04527545	         14.05052343	         23.90835355	        -13.46531338	          1.09828255	         -0.34098372	          0.04824064	          0.22294856	          0.05530542	          0.02021811	          0.16928717	          0.06087659	          0.15242813	          0.06518575	          0.06345293	          0.02946030	          0.01106331	          0.01000010	          0.01000002	          0.40287697	          0.01000035	          0.01000008	          0.01000010	          0.03596265	          0.01367384	          0.02833486	          0.19665051	          0.03113967	          0.37170204	          0.01000037	          0.01000014	          0.13963662	          0.20436587	          0.01000001	
          1.26304727	         -3.60076292	         -2.63823736	          5.05588642	          1.39277824	          0.94305142	         -0.00798798	         31.03986608	          0.68257375	         -2.86765256	        -12.44631495	          4.67092704	          0.19428553	        -13.82073582	         -3.49439856	          0.13549729	        -10.04086027	         13.62852637	         25.63611249	        -13.08171326	          1.51040585	         -0.54186174	          0.03992038	          0.18449564	          0.04576659	          0.03368914	          0.16950923	          0.06394121	          0.12613808	          0.11387939	          0.05250885	          0.02437925	          0.01000007	          0.01484228	          0.01764832	          0.41441427	          0.01770520	          0.01000006	          0.01000020	          0.02975998	          0.02757188	          0.03742962	          0.16273317	          0.02576885	          0.38426026	          0.01000016	          0.01000015	          0.11555272	          0.18708599	          0.01000000	
          1.27555269	         -3.62701110	         -2.66757663	          5.07702425	          1.41016175	          0.94129185	         -0.00711239	         30.75512312	          0.82374566	         -2.95758586	        -13.71463512	          4.32751644	          0.19470691	        -14.10528541	         -3.63939033	         -0.20354810	        -11.40195730	         13.09304796	         27.47013280	        -12.69157513	          1.91171486	         -0.73973060	          0.04873980	          0.15267467	          0.03787297	          0.10480848	          0.20629134	          0.05291318	          0.10438242	          0.11861573	          0.04345235	          0.02017456	          0.01000006	          0.01228236	          0.01460442	          0.44343758	          0.03549521	          0.01000003	          0.01000011	          0.02462711	          0.02281647	          0.03097699	          0.13466573	          0.02132436	          0.41162423	          0.01000040	          0.01000035	          0.09562270	          0.15481826	          0.01000000	
          1.28805811	         -3.63762071	         -2.67832909	          5.07215541	          1.42753357	          0.94000173	         -0.00616342	         30.49836715	          0.94150334	         -3.07946234	        -15.01246906	          3.84459204	          0.16102582	        -14.10140213	         -3.76926382	         -0.54527950	        -13.28074292	         12.40887549	         29.43493856	        -12.32002426	          2.29474527	         -0.92895831	          0.05309277	          0.12634203	          0.03134081	          0.13289691	          0.23771425	          0.04823028	          0.08637906	          0.12256466	          0.03595789	          0.01669512	          0.06117929	          0.01016400	          0.01208554	          0.47101232	          0.05684718	          0.01000004	          0.01000008	          0.02037954	          0.04840090	          0.03169324	          0.11143927	          0.01764643	          0.41629150	          0.01000022	          0.01000017	          0.07913012	          0.12811588	          0.01000000	
          1.30056353	         -3.63208431	         -2.67471868	          5.04271190	          1.44481907	          0.93927512	         -0.00515494	         30.22566806	          1.04800181	         -3.21572408	        -16.32685794	          3.51439901	          0.12354976	        -13.73955999	         -3.89063804	         -0.89991700	        -15.77454340	         11.50472225	         31.57297836	        -11.97237905	          2.66391876	         -1.10635745	          0.04393587	          0.10455112	          0.02593528	          0.15145157	          0.24721893	          0.04972493	          0.07148086	          0.11601326	          0.02975603	          0.01381584	          0.11264883	          0.01000023	          0.01000118	          0.48367575	          0.08058159	          0.01000004	          0.01000007	          0.01686456	          0.06665305	          0.02623282	          0.09221892	          0.01460285	          0.38796669	          0.01000010	          0.01000002	          0.06548210	          0.10601902	          0.01000000	
          1.31306894	         -3.61130213	         -2.65941884	          4.98802512	          1.46196825	          0.93917460	         -0.00409561	         29.85655649	          1.15501552	         -3.33566851	        -17.51345523	          3.31514814	          0.09371226	        -12.98875079	         -4.01204168	         -1.27177269	        -18.90522268	         10.29064018	         33.86361766	        -11.65015030	          3.02055073	         -1.26888810	          0.03635806	          0.08651862	          0.02146208	          0.16395361	          0.23361451	          0.05084121	          0.05915225	          0.11075906	          0.02462384	          0.01143332	          0.17444335	          0.01000065	          0.01000054	          0.48572444	          0.09776487	          0.01000004	          0.01000008	          0.01395584	          0.08467676	          0.02172249	          0.08547863	          0.01208422	          0.32105205	          0.01000005	          0.01000000	          0.05418804	          0.08773332	          0.01324317	
          1.32557436	         -3.57757088	         -2.63146761	          4.90418293	          1.47888354	          0.93974936	         -0.00300735	         29.34101924	          1.26946802	         -3.41145315	        -18.46526315	          3.21542610	          0.06901310	        -11.83731078	         -4.13644886	         -1.65111680	        -22.67438306	          8.85340014	         35.85622897	        -11.36091981	          3.36486885	         -1.41077573	          0.03008721	          0.07159628	          0.01776040	          0.16979482	          0.22532070	          0.05616196	          0.04895001	          0.10226493	          0.02037684	          0.01000066	          0.23224343	          0.01000147	          0.01000059	          0.48099667	          0.08696609	          0.01000015	          0.01632292	          0.01154880	          0.12830575	          0.02700579	          0.07873874	          0.01000001	          0.26567842	          0.01000002	          0.01000000	          0.04484193	          0.07260147	          0.08766542	
          1.33807978	         -3.53415703	         -2.58595841	          4.78526918	          1.49541516	          0.94094686	         -0.00193437	         28.66496745	          1.38726942	         -3.43328446	        -19.14027252	          3.22840298	          0.04851693	        -10.26733293	         -4.26103739	         -2.04443758	        -27.14707068	          7.63088325	         36.42944646	        -11.11946363	          3.69690859	         -1.52608404	          0.02489794	          0.05924768	          0.01469717	          0.15451252	          0.20930279	          0.05788850	          0.04050739	          0.09445881	          0.01686233	          0.01000067	          0.27024578	          0.01000016	          0.01000006	          0.46915024	          0.09850974	          0.01000007	          0.04767424	          0.01000000	          0.15036224	          0.02234869	          0.07403634	          0.01000000	          0.21985538	          0.01000002	          0.01000000	          0.03710779	          0.06007949	          0.13737747	
